<?xml version="1.0" encoding="UTF-8" standalone="no"?>
<!DOCTYPE svg PUBLIC "-//W3C//DTD SVG 1.1//EN" "http://www.w3.org/Graphics/SVG/1.1/DTD/svg11.dtd">
<svg width="100%" height="100%" viewBox="0 0 290 130" version="1.1" xmlns="http://www.w3.org/2000/svg" xmlns:xlink="http://www.w3.org/1999/xlink" xml:space="preserve" xmlns:serif="http://www.serif.com/" style="fill-rule:evenodd;clip-rule:evenodd;stroke-linejoin:round;stroke-miterlimit:2;">
    <rect id="Modern" x="-0" y="0" width="289.895" height="129.107" style="fill:none;"/>
    <g>
        <g>
            <path d="M114.632,67.617c-2.874,0 -5.483,-0.376 -7.825,-1.128c-2.343,-0.752 -4.362,-1.84 -6.059,-3.262c-1.697,-1.423 -2.999,-3.151 -3.904,-5.185c-0.905,-2.034 -1.358,-4.339 -1.358,-6.916c-0,-2.576 0.453,-4.879 1.358,-6.911c0.905,-2.032 2.21,-3.759 3.915,-5.182c1.704,-1.423 3.724,-2.507 6.059,-3.253c2.335,-0.746 4.94,-1.119 7.814,-1.119c3.243,-0 6.133,0.468 8.669,1.403c2.537,0.935 4.598,2.247 6.184,3.937c1.586,1.689 2.558,3.679 2.917,5.969l-7.112,0c-0.327,-1.24 -0.973,-2.33 -1.936,-3.272c-0.963,-0.941 -2.179,-1.68 -3.65,-2.215c-1.47,-0.536 -3.161,-0.804 -5.072,-0.804c-2.431,-0 -4.543,0.437 -6.335,1.311c-1.793,0.874 -3.173,2.161 -4.138,3.861c-0.966,1.7 -1.448,3.792 -1.448,6.275c-0,1.867 0.279,3.515 0.839,4.946c0.559,1.431 1.355,2.629 2.386,3.593c1.032,0.965 2.284,1.695 3.756,2.191c1.473,0.496 3.119,0.744 4.94,0.744c1.871,-0 3.55,-0.265 5.038,-0.794c1.488,-0.53 2.723,-1.275 3.707,-2.235c0.983,-0.961 1.621,-2.082 1.913,-3.363l7.112,0.018c-0.313,2.291 -1.269,4.291 -2.868,6.002c-1.598,1.71 -3.674,3.036 -6.225,3.977c-2.552,0.942 -5.444,1.412 -8.677,1.412Z" style="fill-rule:nonzero;"/>
            <path d="M135.268,67.214l-0,-23.494l5.961,0l0.302,3.958l0.257,0c0.621,-1.504 1.65,-2.591 3.087,-3.262c1.437,-0.67 3.064,-1.005 4.879,-1.005c0.318,0 0.608,0.003 0.87,0.009c0.263,0.007 0.517,0.016 0.764,0.028l0,5.195c-0.206,-0.013 -0.461,-0.022 -0.764,-0.028c-0.302,-0.007 -0.625,-0.01 -0.968,-0.01c-1.699,-0 -3.114,0.227 -4.244,0.681c-1.129,0.454 -1.984,1.109 -2.564,1.967c-0.58,0.857 -0.908,1.899 -0.983,3.126l-0,12.835l-6.597,-0Z" style="fill-rule:nonzero;"/>
            <path d="M163.712,67.633c-2.842,0 -5.269,-0.496 -7.281,-1.489c-2.012,-0.993 -3.548,-2.394 -4.607,-4.203c-1.059,-1.809 -1.588,-3.92 -1.588,-6.332c-0,-2.516 0.534,-4.692 1.602,-6.531c1.067,-1.839 2.59,-3.258 4.567,-4.258c1.977,-1 4.333,-1.501 7.069,-1.501c3.089,0 5.63,0.57 7.625,1.71c1.994,1.14 3.433,2.71 4.315,4.711c0.883,2 1.192,4.295 0.927,6.884l-19.619,-0c0.018,1.5 0.314,2.757 0.887,3.772c0.574,1.015 1.386,1.776 2.436,2.284c1.05,0.507 2.273,0.761 3.667,0.761c1.659,0 3.036,-0.327 4.13,-0.982c1.095,-0.654 1.792,-1.511 2.092,-2.57l6.248,-0c-0.229,1.588 -0.909,2.964 -2.038,4.126c-1.13,1.162 -2.591,2.055 -4.382,2.68c-1.792,0.626 -3.808,0.938 -6.05,0.938Zm-6.963,-13.966l-0.609,-0.596l14.35,0l-0.636,0.618c0.053,-1.427 -0.185,-2.592 -0.714,-3.497c-0.53,-0.904 -1.28,-1.581 -2.251,-2.03c-0.971,-0.448 -2.109,-0.673 -3.415,-0.673c-1.342,0 -2.511,0.239 -3.508,0.717c-0.998,0.478 -1.774,1.177 -2.33,2.096c-0.556,0.92 -0.852,2.041 -0.887,3.365Z" style="fill-rule:nonzero;"/>
            <path d="M189.108,67.617c-1.694,0 -3.237,-0.259 -4.629,-0.778c-1.392,-0.519 -2.595,-1.29 -3.608,-2.314c-1.014,-1.023 -1.789,-2.292 -2.326,-3.807c-0.537,-1.515 -0.806,-3.269 -0.806,-5.26c0,-2.661 0.476,-4.895 1.426,-6.702c0.95,-1.807 2.28,-3.168 3.99,-4.084c1.71,-0.917 3.694,-1.375 5.953,-1.375c1.529,0 2.909,0.198 4.142,0.593c1.233,0.395 2.289,0.949 3.169,1.661c0.88,0.712 1.54,1.55 1.979,2.512l0.371,0l0.257,-4.343l6.362,0l-0,23.494l-6.619,-0l-0,-4.381l-0.371,0c-0.666,1.437 -1.808,2.594 -3.427,3.47c-1.619,0.876 -3.573,1.314 -5.863,1.314Zm2.452,-4.501c1.593,0 2.913,-0.31 3.96,-0.929c1.046,-0.62 1.835,-1.42 2.367,-2.399c0.532,-0.979 0.798,-2.017 0.798,-3.114l0,-2.452c0,-1.114 -0.266,-2.159 -0.798,-3.136c-0.532,-0.978 -1.321,-1.773 -2.367,-2.387c-1.047,-0.613 -2.367,-0.92 -3.96,-0.92c-1.413,-0 -2.649,0.283 -3.708,0.848c-1.059,0.565 -1.882,1.411 -2.469,2.538c-0.588,1.126 -0.881,2.557 -0.881,4.293c-0,1.693 0.293,3.11 0.881,4.251c0.587,1.141 1.41,1.995 2.469,2.56c1.059,0.565 2.295,0.847 3.708,0.847Z" style="fill-rule:nonzero;"/>
            <path d="M218.573,67.214c-1.735,-0 -3.088,-0.21 -4.059,-0.631c-0.97,-0.42 -1.647,-1.03 -2.031,-1.831c-0.383,-0.8 -0.575,-1.755 -0.575,-2.865l0,-13.704l-5.182,0l0,-4.463l5.182,0l0,-6.607l6.596,-0.573l0,7.18l5.969,0l-0,4.463l-5.969,0l0,12.683c0,0.744 0.187,1.238 0.56,1.482c0.373,0.243 0.965,0.365 1.777,0.365l3.632,0l-0,4.501l-5.9,-0Z" style="fill-rule:nonzero;"/>
            <path d="M226.916,67.214l-0,-23.494l6.619,0l-0,23.494l-6.619,-0Zm-0,-26.803l-0,-5.365l6.619,-0l-0,5.365l-6.619,-0Z" style="fill-rule:nonzero;"/>
            <path d="M244.208,67.214l-9.871,-23.513l7.133,-0l4.94,13.516l1.762,5.351l0.227,0l1.71,-5.327l4.947,-13.54l7.141,-0l-9.804,23.513l-8.185,-0Z" style="fill-rule:nonzero;"/>
            <path d="M274.686,67.633c-2.842,0 -5.269,-0.496 -7.281,-1.489c-2.012,-0.993 -3.548,-2.394 -4.607,-4.203c-1.059,-1.809 -1.588,-3.92 -1.588,-6.332c-0,-2.516 0.534,-4.692 1.601,-6.531c1.068,-1.839 2.591,-3.258 4.568,-4.258c1.976,-1 4.333,-1.501 7.069,-1.501c3.088,0 5.63,0.57 7.625,1.71c1.994,1.14 3.433,2.71 4.315,4.711c0.883,2 1.192,4.295 0.927,6.884l-19.619,-0c0.018,1.5 0.314,2.757 0.887,3.772c0.574,1.015 1.386,1.776 2.436,2.284c1.05,0.507 2.273,0.761 3.667,0.761c1.659,0 3.036,-0.327 4.13,-0.982c1.094,-0.654 1.792,-1.511 2.092,-2.57l6.248,-0c-0.229,1.588 -0.909,2.964 -2.039,4.126c-1.129,1.162 -2.59,2.055 -4.381,2.68c-1.792,0.626 -3.808,0.938 -6.05,0.938Zm-6.963,-13.966l-0.609,-0.596l14.35,0l-0.636,0.618c0.053,-1.427 -0.185,-2.592 -0.715,-3.497c-0.529,-0.904 -1.279,-1.581 -2.25,-2.03c-0.971,-0.448 -2.109,-0.673 -3.415,-0.673c-1.342,0 -2.511,0.239 -3.508,0.717c-0.998,0.478 -1.774,1.177 -2.33,2.096c-0.556,0.92 -0.852,2.041 -0.887,3.365Z" style="fill-rule:nonzero;"/>
            <path d="M96.175,116.302l-0,-32.168l26.423,0l-0,3.303l-22.815,0l0.9,-0.75l0,12.917l-0.9,-0.75l20.697,-0l-0,3.158l-20.697,-0l0.9,-0.751l0,15.041l-4.508,0Z" style="fill:#c9c9c9;fill-rule:nonzero;"/>
            <path d="M136.393,116.681c-2.022,-0 -3.852,-0.278 -5.488,-0.832c-1.637,-0.555 -3.051,-1.359 -4.244,-2.412c-1.192,-1.053 -2.11,-2.309 -2.753,-3.77c-0.643,-1.46 -0.965,-3.091 -0.965,-4.894c0,-2.375 0.549,-4.462 1.645,-6.263c1.097,-1.801 2.654,-3.207 4.672,-4.22c2.017,-1.013 4.395,-1.52 7.133,-1.52c1.997,0 3.814,0.278 5.451,0.832c1.636,0.555 3.038,1.359 4.206,2.411c1.167,1.053 2.072,2.313 2.715,3.78c0.643,1.467 0.964,3.116 0.964,4.948c0,2.345 -0.542,4.415 -1.626,6.21c-1.084,1.794 -2.626,3.198 -4.626,4.211c-2,1.012 -4.361,1.519 -7.084,1.519Zm-0.037,-3.064c1.8,-0 3.378,-0.349 4.735,-1.046c1.356,-0.698 2.409,-1.713 3.158,-3.045c0.749,-1.333 1.123,-2.927 1.123,-4.785c0,-1.387 -0.207,-2.629 -0.62,-3.729c-0.414,-1.099 -1.013,-2.039 -1.797,-2.821c-0.784,-0.781 -1.727,-1.375 -2.829,-1.78c-1.101,-0.406 -2.346,-0.609 -3.733,-0.609c-1.8,0 -3.385,0.354 -4.754,1.063c-1.369,0.708 -2.435,1.726 -3.196,3.054c-0.762,1.328 -1.143,2.946 -1.143,4.854c0,1.366 0.207,2.598 0.621,3.697c0.413,1.099 1.018,2.029 1.815,2.789c0.797,0.761 1.755,1.344 2.875,1.75c1.12,0.405 2.368,0.608 3.745,0.608Z" style="fill:#c9c9c9;fill-rule:nonzero;"/>
            <path d="M162.982,116.681c-2.057,-0 -3.845,-0.345 -5.363,-1.034c-1.518,-0.689 -2.679,-1.733 -3.483,-3.13c-0.805,-1.397 -1.207,-3.123 -1.207,-5.179l0,-14.19l4.289,0l0,13.314c0,1.522 0.249,2.819 0.745,3.893c0.497,1.074 1.281,1.894 2.353,2.461c1.072,0.568 2.455,0.851 4.149,0.851c1.664,0 3.13,-0.342 4.399,-1.027c1.268,-0.685 2.255,-1.646 2.961,-2.884c0.706,-1.238 1.059,-2.663 1.059,-4.277l0,-12.331l4.29,0l-0,23.154l-4.07,0l-0.22,-4.936l-0.272,0c-0.721,1.652 -1.948,2.951 -3.68,3.896c-1.733,0.946 -3.716,1.419 -5.95,1.419Z" style="fill:#c9c9c9;fill-rule:nonzero;"/>
            <path d="M182.325,116.302l-0,-23.154l4.07,0l0.181,4.81l0.273,0c0.857,-1.723 2.167,-3.018 3.93,-3.886c1.762,-0.868 3.697,-1.302 5.805,-1.302c1.437,0 2.765,0.182 3.983,0.546c1.218,0.363 2.273,0.938 3.166,1.724c0.892,0.786 1.588,1.804 2.088,3.054c0.499,1.25 0.748,2.768 0.748,4.555l0,13.653l-4.289,0l0,-12.935c0,-1.731 -0.254,-3.157 -0.764,-4.277c-0.509,-1.12 -1.285,-1.951 -2.326,-2.493c-1.041,-0.542 -2.376,-0.814 -4.005,-0.814c-1.74,0 -3.257,0.354 -4.55,1.06c-1.294,0.706 -2.294,1.656 -3,2.852c-0.706,1.195 -1.059,2.558 -1.059,4.088l-0,12.519l-4.251,0Z" style="fill:#c9c9c9;fill-rule:nonzero;"/>
            <path d="M221.199,116.681c-1.694,-0 -3.243,-0.266 -4.644,-0.798c-1.402,-0.532 -2.613,-1.307 -3.631,-2.326c-1.019,-1.019 -1.8,-2.272 -2.342,-3.757c-0.542,-1.486 -0.813,-3.183 -0.813,-5.091c-0,-2.55 0.48,-4.719 1.441,-6.505c0.961,-1.786 2.301,-3.143 4.021,-4.072c1.719,-0.929 3.709,-1.393 5.968,-1.393c1.629,-0 3.1,0.216 4.414,0.649c1.314,0.433 2.433,1.037 3.359,1.812c0.925,0.776 1.612,1.691 2.061,2.746l0.265,-0l-0,-13.812l4.289,0l-0.038,32.168l-4.107,0l-0.144,-4.86l-0.265,0c-0.686,1.572 -1.884,2.838 -3.593,3.798c-1.709,0.961 -3.79,1.441 -6.241,1.441Zm1.437,-3.001c1.856,0 3.421,-0.364 4.694,-1.094c1.274,-0.729 2.242,-1.669 2.905,-2.821c0.663,-1.151 0.995,-2.376 0.995,-3.675l0,-2.793c0,-0.975 -0.189,-1.915 -0.568,-2.82c-0.378,-0.906 -0.925,-1.716 -1.641,-2.43c-0.716,-0.715 -1.612,-1.283 -2.689,-1.706c-1.077,-0.422 -2.309,-0.633 -3.696,-0.633c-1.694,-0 -3.177,0.343 -4.448,1.03c-1.271,0.688 -2.26,1.695 -2.969,3.023c-0.708,1.328 -1.063,2.977 -1.063,4.948c0,1.921 0.355,3.553 1.063,4.896c0.709,1.342 1.698,2.357 2.969,3.044c1.271,0.688 2.754,1.031 4.448,1.031Z" style="fill:#c9c9c9;fill-rule:nonzero;"/>
            <path d="M241.003,116.302l-0,-23.154l3.827,0l0.258,4.274l0.182,0c0.61,-1.487 1.671,-2.623 3.184,-3.407c1.513,-0.784 3.218,-1.176 5.113,-1.176c0.318,0 0.613,0.006 0.886,0.016c0.272,0.011 0.532,0.027 0.779,0.048l0,3.391c-0.227,-0.021 -0.487,-0.037 -0.779,-0.047c-0.293,-0.011 -0.595,-0.016 -0.908,-0.016c-1.609,-0 -3.013,0.246 -4.214,0.738c-1.2,0.492 -2.148,1.202 -2.844,2.131c-0.696,0.928 -1.107,2.052 -1.233,3.372l-0,13.83l-4.251,0Z" style="fill:#c9c9c9;fill-rule:nonzero;"/>
            <path d="M255.322,123.671l0,-2.975l2.823,0c0.867,0 1.6,-0.1 2.2,-0.299c0.6,-0.2 1.115,-0.509 1.544,-0.927c0.429,-0.418 0.787,-0.951 1.074,-1.598l1.876,-3.965l-0,1.595l-11.423,-22.354l4.69,0l6.998,14.928l1.316,2.913l0.227,-0l1.225,-2.913l6.619,-14.928l4.501,0l-11.982,25.632c-0.535,1.185 -1.175,2.136 -1.921,2.855c-0.747,0.719 -1.633,1.238 -2.659,1.557c-1.026,0.32 -2.238,0.479 -3.635,0.479l-3.473,0Z" style="fill:#c9c9c9;fill-rule:nonzero;"/>
        </g>
        <path d="M94.193,3.371l-30.575,-0l-60.53,121.866l30.575,0l60.53,-121.866Z" style="fill:#f3134d;"/>
    </g>
</svg>
