<?xml version="1.0" encoding="UTF-8" standalone="no"?>
<!DOCTYPE svg PUBLIC "-//W3C//DTD SVG 1.1//EN" "http://www.w3.org/Graphics/SVG/1.1/DTD/svg11.dtd">
<svg width="100%" height="100%" viewBox="0 0 843 305" version="1.1" xmlns="http://www.w3.org/2000/svg" xmlns:xlink="http://www.w3.org/1999/xlink" xml:space="preserve" xmlns:serif="http://www.serif.com/" style="fill-rule:evenodd;clip-rule:evenodd;stroke-linejoin:round;stroke-miterlimit:2;">
    <rect id="Artboard1" x="0" y="0" width="843" height="305" style="fill:none;"/>
    <g>
        <path d="M151.795,301.702c-0,-0 127.891,-103.606 0.71,-149.207c-127.225,45.617 -0.71,149.207 -0.71,149.207Z" style="fill:#a90051;fill-opacity:0.7;"/>
        <path d="M3.298,151.795c0,-0 103.606,127.891 149.207,0.71c-45.617,-127.225 -149.207,-0.71 -149.207,-0.71Z" style="fill:#846db2;fill-opacity:0.7;"/>
        <path d="M47.497,46.5c0,0 -17.172,163.693 105.003,106.007c57.706,-122.217 -105.003,-106.007 -105.003,-106.007Z" style="fill:#39bea5;fill-opacity:0.7;"/>
        <path d="M301.702,153.205c-0,0 -103.606,-127.891 -149.207,-0.71c45.617,127.225 149.207,0.71 149.207,0.71Z" style="fill:#e02e64;fill-opacity:0.7;"/>
        <path d="M257.503,258.5c-0,-0 17.172,-163.693 -105.003,-106.007c-57.706,122.217 105.003,106.007 105.003,106.007Z" style="fill:#ffd400;fill-opacity:0.7;"/>
        <path d="M258.5,47.497c-0,0 -163.693,-17.172 -106.007,105.003c122.217,57.706 106.007,-105.003 106.007,-105.003Z" style="fill:#d7204e;fill-opacity:0.7;"/>
        <path d="M153.205,3.298c0,0 -127.891,103.606 -0.71,149.207c127.225,-45.617 0.71,-149.207 0.71,-149.207Z" style="fill:#ff9817;fill-opacity:0.7;"/>
        <path d="M46.5,257.503c0,-0 163.693,17.172 106.007,-105.003c-122.217,-57.706 -106.007,105.003 -106.007,105.003Z" style="fill:#769cc7;fill-opacity:0.7;"/>
    </g>
    <path d="M438.603,179.001c-0,-38.227 -70.175,-41.551 -70.175,-72.945c0,-16.436 16.621,-23.268 30.656,-23.268c18.467,-0 36.38,10.341 28.623,31.763c-0.369,0.739 -5.17,0.369 -7.386,1.847c-1.847,1.292 -1.478,5.54 0.554,7.202c0.369,0.369 0.738,0.738 1.477,0.738c1.293,0 3.139,-1.108 6.094,-5.909c11.634,-19.021 -1.662,-36.011 -27.146,-37.673c-1.478,-0.185 -2.771,-0.185 -4.248,-0.185c-25.854,0 -42.289,17.729 -42.289,36.75c-0,39.335 70.174,36.565 69.251,72.206c-0.554,17.913 -17.359,23.638 -32.502,23.638c-22.714,-0 -46.352,-12.558 -38.042,-34.349c0.554,-1.477 1.108,-2.955 1.847,-4.247c0.184,-0.554 4.616,-0.185 7.017,-1.847c1.847,-1.293 1.477,-5.54 -0.554,-7.202c-0.369,-0.185 -0.923,-0.739 -1.662,-0.739c-1.293,0 -3.324,1.293 -6.094,6.094c-15.882,27.701 8.495,44.691 36.749,44.691c21.422,-0 47.83,-11.819 47.83,-36.565Z" style="fill:#191919;fill-rule:nonzero;"/>
    <path d="M448.575,171.983c0,23.269 16.621,42.475 38.781,42.475c15.512,-0 30.101,-8.865 39.889,-20.683l-1.293,-0.185c-8.125,9.233 -18.467,13.481 -28.254,13.481c-13.297,-0 -25.67,-7.941 -30.286,-21.976c-2.216,-6.833 -2.586,-16.436 -1.662,-23.453l63.711,-0.37c-0.554,-22.714 -16.99,-39.15 -36.934,-39.15c-24.561,0 -43.952,21.791 -43.952,49.861Zm17.544,-12.742c1.477,-21.052 12.188,-34.903 25.3,-34.903c12.003,0 19.944,9.973 21.976,22.53c0.923,5.91 3.139,11.819 -7.203,11.819l-40.073,0.554Z" style="fill:#191919;fill-rule:nonzero;"/>
    <path d="M525.029,82.049c23.822,-0 22.16,-0.923 22.16,13.481l0,102.677c0,8.125 -3.139,11.634 -11.265,12.927l-6.832,1.108l-0,1.108c3.693,-0 7.94,-0 12.372,-0.185l28.07,-0c4.986,0.185 8.495,0.185 12.373,0.185l0,-1.108l-6.833,-1.108c-7.94,-1.293 -11.264,-4.802 -11.264,-12.927l-0,-117.82l-38.966,0.184l0.185,1.478Z" style="fill:#191919;fill-rule:nonzero;"/>
    <path d="M573.966,82.049c23.823,-0 22.161,-0.923 22.161,13.481l-0,102.677c-0,8.125 -3.139,11.634 -11.265,12.927l-6.833,1.108l0,1.108c3.694,-0 7.941,-0 12.373,-0.185l28.07,-0c4.986,0.185 8.495,0.185 12.373,0.185l-0,-1.108l-6.833,-1.108c-7.941,-1.293 -11.265,-4.802 -11.265,-12.927l0,-117.82l-38.965,0.184l0.184,1.478Z" style="fill:#191919;fill-rule:nonzero;"/>
    <path d="M605.176,263.58c32.686,-0 47.46,-34.164 54.108,-69.436l12.004,-67.59l28.07,0l0.554,-3.139l-28.07,0c1.847,-13.85 1.847,-46.537 17.544,-48.753c19.205,0.369 16.435,6.464 16.435,20.868l0,102.677c0,8.125 -3.139,11.634 -11.265,12.927l-6.833,1.108l0,1.108c3.694,-0 7.941,-0 12.373,-0.185l28.07,-0c4.986,0.185 8.495,0.185 12.373,0.185l0,-1.108l-6.833,-1.108c-7.94,-1.293 -11.264,-4.802 -11.264,-12.927l-0,-125.207l-33.056,0.185c-22.53,-0.554 -27.886,23.637 -32.318,41.735c-0.738,2.77 -1.477,5.54 -2.031,8.495l-16.621,0l-0.554,3.139l16.436,0c-0.923,4.433 -1.847,8.68 -2.585,13.112c-2.216,12.558 -4.248,34.533 -6.833,47.091c-3.509,18.098 -14.22,75.161 -39.335,75.161c-11.265,-0 -9.418,-7.018 -8.679,-13.666c0.369,-4.801 -1.847,-7.941 -5.91,-7.941c-3.324,0 -7.941,3.325 -9.049,8.126c-1.108,8.125 11.45,15.143 23.269,15.143Z" style="fill:#191919;fill-rule:nonzero;"/>
    <path d="M793.54,214.458c26.592,-0 47.46,-20.129 47.46,-46.168c-0,-26.223 -20.868,-46.168 -47.46,-46.168c-27.147,0 -47.461,19.945 -47.461,46.168c0,26.039 20.314,46.168 47.461,46.168Zm-28.994,-46.168c0,-25.3 8.865,-44.875 28.994,-44.875c20.129,0 28.808,19.206 28.808,44.875c0,25.669 -9.972,44.875 -28.808,44.875c-18.837,-0 -28.994,-19.206 -28.994,-44.875Z" style="fill:#191919;fill-rule:nonzero;"/>
</svg>
